<svg xmlns="http://www.w3.org/2000/svg" data-name="Files and Folders " viewBox="0 0 60 60" x="0px" y="0px"><title>Folders and Files - Outline - 061 - Compressed File</title><path d="M50,60H10a3,3,0,0,1-3-3V3a3,3,0,0,1,3-3H39a1,1,0,0,1,1,1V13a1,1,0,0,0,1,1H52a1,1,0,0,1,1,1V57A3,3,0,0,1,50,60ZM10,2A1,1,0,0,0,9,3V57a1,1,0,0,0,1,1H50a1,1,0,0,0,1-1V16H41a3,3,0,0,1-3-3V2Z"></path><path d="M52,16H41a3,3,0,0,1-3-3V1A1,1,0,0,1,39.73.32l13,14A1,1,0,0,1,52,16ZM40,3.55V13a1,1,0,0,0,1,1h8.71Z"></path><path d="M12,24a1,1,0,0,1,0-2h0a1,1,0,0,1,0,2Z"></path><path d="M12,28a1,1,0,0,1,0-2h0a1,1,0,0,1,0,2Z"></path><path d="M12,32a1,1,0,0,1,0-2h0a1,1,0,0,1,0,2Z"></path><path d="M12,36a1,1,0,0,1,0-2h0a1,1,0,0,1,0,2Z"></path><path d="M12,12a1,1,0,0,1,0-2h0a1,1,0,0,1,0,2Z"></path><path d="M12,16a1,1,0,0,1,0-2h0a1,1,0,0,1,0,2Z"></path><path d="M12,20a1,1,0,0,1,0-2h0a1,1,0,0,1,0,2Z"></path><path d="M48,16a1,1,0,0,1,0-2h0a1,1,0,0,1,0,2Z"></path><path d="M48,24a1,1,0,0,1,0-2h0a1,1,0,0,1,0,2Z"></path><path d="M48,28a1,1,0,0,1,0-2h0a1,1,0,0,1,0,2Z"></path><path d="M48,32a1,1,0,0,1,0-2h0a1,1,0,0,1,0,2Z"></path><path d="M48,36a1,1,0,0,1,0-2h0a1,1,0,0,1,0,2Z"></path><path d="M48,40a1,1,0,0,1,0-2h0a1,1,0,0,1,0,2Z"></path><path d="M12,40a1,1,0,0,1,0-2h0a1,1,0,0,1,0,2Z"></path><path d="M12,44a1,1,0,0,1,0-2h0a1,1,0,0,1,0,2Z"></path><path d="M12,48a1,1,0,0,1,0-2h0a1,1,0,0,1,0,2Z"></path><path d="M48,44a1,1,0,0,1,0-2h0a1,1,0,0,1,0,2Z"></path><path d="M48,48a1,1,0,0,1,0-2h0a1,1,0,0,1,0,2Z"></path><path d="M48,52a1,1,0,0,1,0-2h0a1,1,0,0,1,0,2Z"></path><path d="M12,52a1,1,0,0,1,0-2h0a1,1,0,0,1,0,2Z"></path><path d="M12,56a1,1,0,0,1,0-2h0a1,1,0,0,1,0,2Z"></path><path d="M48,56a1,1,0,0,1,0-2h0a1,1,0,0,1,0,2Z"></path><path d="M30,60a1,1,0,0,1-1-1V46a1,1,0,0,1,2,0V59A1,1,0,0,1,30,60Z"></path><path d="M30,34a1,1,0,0,1-1-1V1a1,1,0,0,1,2,0V33A1,1,0,0,1,30,34Z"></path><path d="M30,6H28a1,1,0,0,1,0-2h2a1,1,0,0,1,0,2Z"></path><path d="M32,8H30a1,1,0,0,1,0-2h2a1,1,0,0,1,0,2Z"></path><path d="M32,12H30a1,1,0,0,1,0-2h2a1,1,0,0,1,0,2Z"></path><path d="M32,16H30a1,1,0,0,1,0-2h2a1,1,0,0,1,0,2Z"></path><path d="M32,20H30a1,1,0,0,1,0-2h2a1,1,0,0,1,0,2Z"></path><path d="M32,24H30a1,1,0,0,1,0-2h2a1,1,0,0,1,0,2Z"></path><path d="M32,28H30a1,1,0,0,1,0-2h2a1,1,0,0,1,0,2Z"></path><path d="M30,10H28a1,1,0,0,1,0-2h2a1,1,0,0,1,0,2Z"></path><path d="M30,14H28a1,1,0,0,1,0-2h2a1,1,0,0,1,0,2Z"></path><path d="M30,18H28a1,1,0,0,1,0-2h2a1,1,0,0,1,0,2Z"></path><path d="M30,22H28a1,1,0,0,1,0-2h2a1,1,0,0,1,0,2Z"></path><path d="M30,26H28a1,1,0,0,1,0-2h2a1,1,0,0,1,0,2Z"></path><path d="M30,30H28a1,1,0,0,1,0-2h2a1,1,0,0,1,0,2Z"></path><path d="M32,54H30a1,1,0,0,1,0-2h2a1,1,0,0,1,0,2Z"></path><path d="M32,50H30a1,1,0,0,1,0-2h2a1,1,0,0,1,0,2Z"></path><path d="M30,52H28a1,1,0,0,1,0-2h2a1,1,0,0,1,0,2Z"></path><path d="M30,56H28a1,1,0,0,1,0-2h2a1,1,0,0,1,0,2Z"></path><path d="M33.83,46H26.17a2,2,0,0,1-1.55-.71,1.87,1.87,0,0,1-.42-1.52l1.69-10.15a2,2,0,0,1,2-1.62h4.28a2,2,0,0,1,2,1.62l1.69,10.15a1.87,1.87,0,0,1-.42,1.52A2,2,0,0,1,33.83,46Zm-7.65-2h7.64L32.14,33.95,27.86,34Z"></path></svg>