<svg xmlns="http://www.w3.org/2000/svg" data-name="Files and Folders " viewBox="0 0 60 60" x="0px" y="0px"><title>Folders and Files - Outline - 001 - Folder</title><path d="M30,15H4V9A3,3,0,0,1,7,6H27a3,3,0,0,1,3,3ZM6,13H28V9a1,1,0,0,0-1-1H7A1,1,0,0,0,6,9Z"></path><path d="M54,15H28V9H51a3,3,0,0,1,3,3ZM30,13H52V12a1,1,0,0,0-1-1H30Z"></path><path d="M55,19a1,1,0,1,1,1-1h0A1,1,0,0,1,55,19Z"></path><path d="M55,23a1,1,0,0,1,0-2h0a1,1,0,0,1,0,2Z"></path><path d="M55,27a1,1,0,0,1,0-2h0a1,1,0,0,1,0,2Z"></path><path d="M55,31a1,1,0,0,1,0-2h0a1,1,0,0,1,0,2Z"></path><path d="M55,35a1,1,0,0,1,0-2h0a1,1,0,0,1,0,2Z"></path><path d="M55,39a1,1,0,0,1,0-2h0a1,1,0,0,1,0,2Z"></path><path d="M55,43a1,1,0,0,1,0-2h0a1,1,0,0,1,0,2Z"></path><path d="M55,47a1,1,0,0,1,0-2h0a1,1,0,0,1,0,2Z"></path><path d="M51,23a1,1,0,0,1,0-2h0a1,1,0,0,1,0,2Z"></path><path d="M51,27a1,1,0,0,1,0-2h0a1,1,0,0,1,0,2Z"></path><path d="M51,31a1,1,0,0,1,0-2h0a1,1,0,0,1,0,2Z"></path><path d="M51,35a1,1,0,0,1,0-2h0a1,1,0,0,1,0,2Z"></path><path d="M51,39a1,1,0,0,1,0-2h0a1,1,0,0,1,0,2Z"></path><path d="M51,43a1,1,0,0,1,0-2h0a1,1,0,0,1,0,2Z"></path><path d="M51,47a1,1,0,0,1,0-2h0a1,1,0,0,1,0,2Z"></path><path d="M55,51a1,1,0,0,1,0-2h0a1,1,0,0,1,0,2Z"></path><path d="M5,19a1,1,0,1,1,1-1H6A1,1,0,0,1,5,19Z"></path><path d="M5,23a1,1,0,0,1,0-2H5a1,1,0,0,1,0,2Z"></path><path d="M5,27a1,1,0,0,1,0-2H5a1,1,0,0,1,0,2Z"></path><path d="M5,31a1,1,0,0,1,0-2H5a1,1,0,0,1,0,2Z"></path><path d="M5,35a1,1,0,0,1,0-2H5a1,1,0,0,1,0,2Z"></path><path d="M5,39a1,1,0,0,1,0-2H5a1,1,0,0,1,0,2Z"></path><path d="M5,43a1,1,0,0,1,0-2H5a1,1,0,0,1,0,2Z"></path><path d="M5,47a1,1,0,0,1,0-2H5a1,1,0,0,1,0,2Z"></path><path d="M9,23a1,1,0,0,1,0-2H9a1,1,0,0,1,0,2Z"></path><path d="M9,27a1,1,0,0,1,0-2H9a1,1,0,0,1,0,2Z"></path><path d="M9,31a1,1,0,0,1,0-2H9a1,1,0,0,1,0,2Z"></path><path d="M9,35a1,1,0,0,1,0-2H9a1,1,0,0,1,0,2Z"></path><path d="M9,39a1,1,0,0,1,0-2H9a1,1,0,0,1,0,2Z"></path><path d="M9,43a1,1,0,0,1,0-2H9a1,1,0,0,1,0,2Z"></path><path d="M9,47a1,1,0,0,1,0-2H9a1,1,0,0,1,0,2Z"></path><path d="M5,51a1,1,0,0,1,0-2H5a1,1,0,0,1,0,2Z"></path><path d="M57,55H3a3,3,0,0,1-3-3V16a3,3,0,0,1,3-3H57a3,3,0,0,1,3,3V52A3,3,0,0,1,57,55ZM3,15a1,1,0,0,0-1,1V52a1,1,0,0,0,1,1H57a1,1,0,0,0,1-1V16a1,1,0,0,0-1-1Z"></path></svg>