<svg xmlns="http://www.w3.org/2000/svg" data-name="Files and Folders " viewBox="0 0 60 60" x="0px" y="0px"><title>Folders and Files - Outline - 052 - Text File </title><path d="M50,60H10a3,3,0,0,1-3-3V3a3,3,0,0,1,3-3H39a1,1,0,0,1,1,1V13a1,1,0,0,0,1,1H52a1,1,0,0,1,1,1V57A3,3,0,0,1,50,60ZM10,2A1,1,0,0,0,9,3V57a1,1,0,0,0,1,1H50a1,1,0,0,0,1-1V16H41a3,3,0,0,1-3-3V2Z"></path><path d="M52,16H41a3,3,0,0,1-3-3V1A1,1,0,0,1,39.73.32l13,14A1,1,0,0,1,52,16ZM40,3.55V13a1,1,0,0,0,1,1h8.71Z"></path><path d="M12,24a1,1,0,0,1,0-2h0a1,1,0,0,1,0,2Z"></path><path d="M12,28a1,1,0,0,1,0-2h0a1,1,0,0,1,0,2Z"></path><path d="M12,32a1,1,0,0,1,0-2h0a1,1,0,0,1,0,2Z"></path><path d="M12,36a1,1,0,0,1,0-2h0a1,1,0,0,1,0,2Z"></path><path d="M12,12a1,1,0,0,1,0-2h0a1,1,0,0,1,0,2Z"></path><path d="M12,16a1,1,0,0,1,0-2h0a1,1,0,0,1,0,2Z"></path><path d="M12,20a1,1,0,0,1,0-2h0a1,1,0,0,1,0,2Z"></path><path d="M48,16a1,1,0,0,1,0-2h0a1,1,0,0,1,0,2Z"></path><path d="M48,24a1,1,0,0,1,0-2h0a1,1,0,0,1,0,2Z"></path><path d="M48,28a1,1,0,0,1,0-2h0a1,1,0,0,1,0,2Z"></path><path d="M48,32a1,1,0,0,1,0-2h0a1,1,0,0,1,0,2Z"></path><path d="M48,36a1,1,0,0,1,0-2h0a1,1,0,0,1,0,2Z"></path><path d="M48,40a1,1,0,0,1,0-2h0a1,1,0,0,1,0,2Z"></path><path d="M12,40a1,1,0,0,1,0-2h0a1,1,0,0,1,0,2Z"></path><path d="M12,44a1,1,0,0,1,0-2h0a1,1,0,0,1,0,2Z"></path><path d="M12,48a1,1,0,0,1,0-2h0a1,1,0,0,1,0,2Z"></path><path d="M48,44a1,1,0,0,1,0-2h0a1,1,0,0,1,0,2Z"></path><path d="M48,48a1,1,0,0,1,0-2h0a1,1,0,0,1,0,2Z"></path><path d="M48,52a1,1,0,0,1,0-2h0a1,1,0,0,1,0,2Z"></path><path d="M12,52a1,1,0,0,1,0-2h0a1,1,0,0,1,0,2Z"></path><path d="M12,56a1,1,0,0,1,0-2h0a1,1,0,0,1,0,2Z"></path><path d="M48,56a1,1,0,0,1,0-2h0a1,1,0,0,1,0,2Z"></path><path d="M39,24H18a1,1,0,0,1,0-2H39a1,1,0,0,1,0,2Z"></path><path d="M39,28H18a1,1,0,0,1,0-2H39a1,1,0,0,1,0,2Z"></path><path d="M39,32H18a1,1,0,0,1,0-2H39a1,1,0,0,1,0,2Z"></path><path d="M39,36H18a1,1,0,0,1,0-2H39a1,1,0,0,1,0,2Z"></path><path d="M39,40H18a1,1,0,0,1,0-2H39a1,1,0,0,1,0,2Z"></path><path d="M39,44H18a1,1,0,0,1,0-2H39a1,1,0,0,1,0,2Z"></path></svg>