<svg xmlns="http://www.w3.org/2000/svg" data-name="Files and Folders " viewBox="0 0 60 60" x="0px" y="0px"><title>Folders and Files - Outline - 064 - Shell File</title><path d="M50,60H10a3,3,0,0,1-3-3V3a3,3,0,0,1,3-3H39a1,1,0,0,1,1,1V13a1,1,0,0,0,1,1H52a1,1,0,0,1,1,1V57A3,3,0,0,1,50,60ZM10,2A1,1,0,0,0,9,3V57a1,1,0,0,0,1,1H50a1,1,0,0,0,1-1V16H41a3,3,0,0,1-3-3V2Z"></path><path d="M52,16H41a3,3,0,0,1-3-3V1A1,1,0,0,1,39.73.32l13,14A1,1,0,0,1,52,16ZM40,3.55V13a1,1,0,0,0,1,1h8.71Z"></path><path d="M12,24a1,1,0,0,1,0-2h0a1,1,0,0,1,0,2Z"></path><path d="M12,28a1,1,0,0,1,0-2h0a1,1,0,0,1,0,2Z"></path><path d="M12,32a1,1,0,0,1,0-2h0a1,1,0,0,1,0,2Z"></path><path d="M12,36a1,1,0,0,1,0-2h0a1,1,0,0,1,0,2Z"></path><path d="M12,12a1,1,0,0,1,0-2h0a1,1,0,0,1,0,2Z"></path><path d="M12,16a1,1,0,0,1,0-2h0a1,1,0,0,1,0,2Z"></path><path d="M12,20a1,1,0,0,1,0-2h0a1,1,0,0,1,0,2Z"></path><path d="M48,16a1,1,0,0,1,0-2h0a1,1,0,0,1,0,2Z"></path><path d="M48,24a1,1,0,0,1,0-2h0a1,1,0,0,1,0,2Z"></path><path d="M48,28a1,1,0,0,1,0-2h0a1,1,0,0,1,0,2Z"></path><path d="M48,32a1,1,0,0,1,0-2h0a1,1,0,0,1,0,2Z"></path><path d="M48,36a1,1,0,0,1,0-2h0a1,1,0,0,1,0,2Z"></path><path d="M48,40a1,1,0,0,1,0-2h0a1,1,0,0,1,0,2Z"></path><path d="M12,40a1,1,0,0,1,0-2h0a1,1,0,0,1,0,2Z"></path><path d="M12,44a1,1,0,0,1,0-2h0a1,1,0,0,1,0,2Z"></path><path d="M12,48a1,1,0,0,1,0-2h0a1,1,0,0,1,0,2Z"></path><path d="M48,44a1,1,0,0,1,0-2h0a1,1,0,0,1,0,2Z"></path><path d="M48,48a1,1,0,0,1,0-2h0a1,1,0,0,1,0,2Z"></path><path d="M48,52a1,1,0,0,1,0-2h0a1,1,0,0,1,0,2Z"></path><path d="M12,52a1,1,0,0,1,0-2h0a1,1,0,0,1,0,2Z"></path><path d="M12,56a1,1,0,0,1,0-2h0a1,1,0,0,1,0,2Z"></path><path d="M48,56a1,1,0,0,1,0-2h0a1,1,0,0,1,0,2Z"></path><path d="M22.5,44.5a1,1,0,0,1-.56-1.83L26.7,39.5l-4.75-3.17a1,1,0,1,1,1.11-1.66l6,4a1,1,0,0,1,0,1.66l-6,4A1,1,0,0,1,22.5,44.5Z"></path><path d="M37.5,44.5h-6a1,1,0,0,1,0-2h6a1,1,0,0,1,0,2Z"></path></svg>