<svg xmlns="http://www.w3.org/2000/svg" data-name="Files and Folders " viewBox="0 0 60 60" x="0px" y="0px"><title>Folders and Files - Outline - 059 - Image File</title><path d="M50.8,60h-40a3,3,0,0,1-3-3V3a3,3,0,0,1,3-3h29a1,1,0,0,1,1,1V13a1,1,0,0,0,1,1h11a1,1,0,0,1,1,1V57A3,3,0,0,1,50.8,60ZM10.8,2a1,1,0,0,0-1,1V57a1,1,0,0,0,1,1h40a1,1,0,0,0,1-1V16h-10a3,3,0,0,1-3-3V2Z"></path><path d="M52.8,16h-11a3,3,0,0,1-3-3V1A1,1,0,0,1,40.53.32l13,14A1,1,0,0,1,52.8,16ZM40.8,3.55V13a1,1,0,0,0,1,1H50.5Z"></path><path d="M12.81,24a1,1,0,0,1,0-2h0a1,1,0,0,1,0,2Z"></path><path d="M12.81,28a1,1,0,0,1,0-2h0a1,1,0,0,1,0,2Z"></path><path d="M12.81,32a1,1,0,0,1,0-2h0a1,1,0,0,1,0,2Z"></path><path d="M12.81,36a1,1,0,0,1,0-2h0a1,1,0,0,1,0,2Z"></path><path d="M12.81,12a1,1,0,0,1,0-2h0a1,1,0,0,1,0,2Z"></path><path d="M12.81,16a1,1,0,0,1,0-2h0a1,1,0,0,1,0,2Z"></path><path d="M12.81,20a1,1,0,0,1,0-2h0a1,1,0,0,1,0,2Z"></path><path d="M48.8,16a1,1,0,0,1,0-2h0a1,1,0,0,1,0,2Z"></path><path d="M48.8,24a1,1,0,0,1,0-2h0a1,1,0,0,1,0,2Z"></path><path d="M48.8,28a1,1,0,0,1,0-2h0a1,1,0,0,1,0,2Z"></path><path d="M48.8,32a1,1,0,0,1,0-2h0a1,1,0,0,1,0,2Z"></path><path d="M48.8,36a1,1,0,0,1,0-2h0a1,1,0,0,1,0,2Z"></path><path d="M48.8,40a1,1,0,0,1,0-2h0a1,1,0,0,1,0,2Z"></path><path d="M12.81,40a1,1,0,0,1,0-2h0a1,1,0,0,1,0,2Z"></path><path d="M12.81,44a1,1,0,0,1,0-2h0a1,1,0,0,1,0,2Z"></path><path d="M12.81,48a1,1,0,0,1,0-2h0a1,1,0,0,1,0,2Z"></path><path d="M48.8,44a1,1,0,0,1,0-2h0a1,1,0,0,1,0,2Z"></path><path d="M48.8,48a1,1,0,0,1,0-2h0a1,1,0,0,1,0,2Z"></path><path d="M48.8,52a1,1,0,0,1,0-2h0a1,1,0,0,1,0,2Z"></path><path d="M12.81,52a1,1,0,0,1,0-2h0a1,1,0,0,1,0,2Z"></path><path d="M12.81,56a1,1,0,0,1,0-2h0a1,1,0,0,1,0,2Z"></path><path d="M48.8,56a1,1,0,0,1,0-2h0a1,1,0,0,1,0,2Z"></path><path d="M25.5,37A3.5,3.5,0,1,1,29,33.5,3.5,3.5,0,0,1,25.5,37Zm0-5A1.5,1.5,0,1,0,27,33.5,1.5,1.5,0,0,0,25.5,32Z"></path><path d="M18,47a1,1,0,0,1-.59-1.8l8.52-6.28a1,1,0,0,1,1.39.2L29.8,42.4A1,1,0,0,1,28.2,43.6l-1.89-2.49L18.59,46.8A1,1,0,0,1,18,47Z"></path><path d="M43.1,48H24a1,1,0,0,1,0-2H42.1V42l-6.23-5.84-7.39,5.75a1,1,0,1,1-1.23-1.58L35.32,34a1,1,0,0,1,1.3.06l7.17,6.72a1,1,0,0,1,.32.73V47A1,1,0,0,1,43.1,48Z"></path></svg>