<svg xmlns="http://www.w3.org/2000/svg" data-name="Files and Folders " viewBox="0 0 60 60" x="0px" y="0px"><title>Folders and Files - Outline - 058 - Audio File</title><path d="M50,60H10a3,3,0,0,1-3-3V3a3,3,0,0,1,3-3H39a1,1,0,0,1,1,1V13a1,1,0,0,0,1,1H52a1,1,0,0,1,1,1V57A3,3,0,0,1,50,60ZM10,2A1,1,0,0,0,9,3V57a1,1,0,0,0,1,1H50a1,1,0,0,0,1-1V16H41a3,3,0,0,1-3-3V2Z"></path><path d="M52,16H41a3,3,0,0,1-3-3V1A1,1,0,0,1,39.73.32l13,14A1,1,0,0,1,52,16ZM40,3.55V13a1,1,0,0,0,1,1h8.71Z"></path><path d="M12,24a1,1,0,0,1,0-2h0a1,1,0,0,1,0,2Z"></path><path d="M12,28a1,1,0,0,1,0-2h0a1,1,0,0,1,0,2Z"></path><path d="M12,32a1,1,0,0,1,0-2h0a1,1,0,0,1,0,2Z"></path><path d="M12,36a1,1,0,0,1,0-2h0a1,1,0,0,1,0,2Z"></path><path d="M12,12a1,1,0,0,1,0-2h0a1,1,0,0,1,0,2Z"></path><path d="M12,16a1,1,0,0,1,0-2h0a1,1,0,0,1,0,2Z"></path><path d="M12,20a1,1,0,0,1,0-2h0a1,1,0,0,1,0,2Z"></path><path d="M48,16a1,1,0,0,1,0-2h0a1,1,0,0,1,0,2Z"></path><path d="M48,24a1,1,0,0,1,0-2h0a1,1,0,0,1,0,2Z"></path><path d="M48,28a1,1,0,0,1,0-2h0a1,1,0,0,1,0,2Z"></path><path d="M48,32a1,1,0,0,1,0-2h0a1,1,0,0,1,0,2Z"></path><path d="M48,36a1,1,0,0,1,0-2h0a1,1,0,0,1,0,2Z"></path><path d="M48,40a1,1,0,0,1,0-2h0a1,1,0,0,1,0,2Z"></path><path d="M12,40a1,1,0,0,1,0-2h0a1,1,0,0,1,0,2Z"></path><path d="M12,44a1,1,0,0,1,0-2h0a1,1,0,0,1,0,2Z"></path><path d="M12,48a1,1,0,0,1,0-2h0a1,1,0,0,1,0,2Z"></path><path d="M48,44a1,1,0,0,1,0-2h0a1,1,0,0,1,0,2Z"></path><path d="M48,48a1,1,0,0,1,0-2h0a1,1,0,0,1,0,2Z"></path><path d="M48,52a1,1,0,0,1,0-2h0a1,1,0,0,1,0,2Z"></path><path d="M12,52a1,1,0,0,1,0-2h0a1,1,0,0,1,0,2Z"></path><path d="M12,56a1,1,0,0,1,0-2h0a1,1,0,0,1,0,2Z"></path><path d="M48,56a1,1,0,0,1,0-2h0a1,1,0,0,1,0,2Z"></path><path d="M24.5,49.07a4,4,0,1,1,4-4A4,4,0,0,1,24.5,49.07Zm0-6.07a2,2,0,1,0,2,2A2,2,0,0,0,24.5,43Z"></path><path d="M35.5,47a4,4,0,1,1,4-4A4,4,0,0,1,35.5,47Zm0-6.07a2,2,0,1,0,2,2A2,2,0,0,0,35.5,40.93Z"></path><path d="M28.54,45.14h-2V32.6A1,1,0,0,1,28,31.7a4,4,0,0,0,4-.4A5.44,5.44,0,0,1,35.65,30a5.51,5.51,0,0,1,3.53,1.2,1,1,0,0,1,.35.76V42.71h-2V32.47a4,4,0,0,0-4.18.3A5.8,5.8,0,0,1,28.54,34Z"></path></svg>