<svg xmlns="http://www.w3.org/2000/svg" xmlns:xlink="http://www.w3.org/1999/xlink" version="1.1" x="0px" y="0px" viewBox="0 0 100 100" style="enable-background:new 0 0 100 100;" xml:space="preserve"><path d="M85.2,81.7L70.6,67.1c4.8-5.7,7.7-12.9,7.7-20.9C78.3,28.4,63.9,14,46.1,14S14,28.4,14,46.1s14.4,32.2,32.1,32.2  c8,0,15.3-2.9,20.8-7.7l14.7,14.6c0.5,0.5,1.1,0.8,1.8,0.8c0.7,0,1.3-0.3,1.8-0.7C86.3,84.4,86.3,82.7,85.2,81.7z M46.1,73.1  c-14.9,0-27-12.1-27-27s12.1-27,27-27s27,12.1,27,27S61.1,73.1,46.1,73.1z"></path></svg>